M48
;GenerationSoftware,Autodesk,EAGLE,9.5.2*%
;CreationDate,2021-10-12T08:02:53Z*%
FMAT,2
ICI,OFF
METRIC,TZ,000.000
T7C0.559
T6C0.600
T5C0.610
T4C0.800
T3C0.813
T2C0.900
T1C1.000
%
G90
M71
T1
X29464Y57912
X21844Y57912
X19304Y57912
X16764Y57912
X26924Y57912
X24384Y57912
T2
X79591Y54382
X79591Y56922
X79591Y59462
T3
X45610Y53787
X48150Y53787
X50690Y53787
X53230Y53787
X55770Y53787
X58310Y53787
X60850Y53787
X43070Y53787
X63390Y53787
X65930Y53787
X68470Y53787
X71010Y53787
X73550Y53787
X76090Y53787
X63390Y46167
X60850Y46167
X58310Y46167
X55770Y46167
X53230Y46167
X48150Y46167
X45610Y46167
X43070Y46167
X50690Y46167
X73550Y46167
X71010Y46167
X68470Y46167
X65930Y46167
X76090Y46167
T4
X31258Y78165
X28718Y78165
X26178Y78165
X23638Y78165
X21098Y78165
X18558Y78165
X69559Y62872
X72099Y62872
X74639Y62872
X77179Y62872
X31258Y62924
X82259Y62872
X82259Y78112
X79719Y78112
X77179Y78112
X74639Y78112
X72099Y78112
X69559Y78112
X79719Y62872
X18558Y62924
X21098Y62924
X23638Y62924
X26178Y62924
X28718Y62924
T5
X57048Y42151
X69558Y43548
X51879Y67297
X71666Y69952
X38049Y73724
X36220Y78092
X37617Y71539
X24219Y75451
X50749Y57950
X41250Y71793
X23254Y69393
X60642Y61036
X38519Y67335
X35725Y73724
X62497Y66523
X82220Y44437
X41402Y57912
X46482Y58166
X39637Y76937
X59055Y59563
X55372Y59436
X27699Y68707
X58712Y65151
X42405Y70764
T6
X62865Y43942
X65405Y43942
T7
X30607Y47625
X33401Y54102
X68072Y49911
X26035Y45212
X34036Y41910
X71501Y43688
X43180Y42545
M30