G04 EAGLE Gerber RS-274X export*
G75*
%MOMM*%
%FSLAX34Y34*%
%LPD*%
%INTop Copper*%
%IPPOS*%
%AMOC8*
5,1,8,0,0,1.08239X$1,22.5*%
G01*
%ADD10R,1.308000X1.308000*%
%ADD11C,1.320800*%
%ADD12C,1.408000*%
%ADD13R,1.500000X3.000000*%
%ADD14R,2.000000X3.300000*%
%ADD15R,2.000000X3.500000*%
%ADD16R,1.508000X1.508000*%
%ADD17R,1.108000X1.108000*%
%ADD18C,0.381000*%
%ADD19C,0.609600*%
%ADD20C,1.016000*%
%ADD21C,0.965200*%


D10*
X185579Y629245D03*
X210979Y629245D03*
X236379Y629245D03*
X261779Y629245D03*
X287179Y629245D03*
X312579Y629245D03*
X312579Y781645D03*
X287179Y781645D03*
X261779Y781645D03*
X236379Y781645D03*
X210979Y781645D03*
X185579Y781645D03*
X695587Y628721D03*
X720987Y628721D03*
X746387Y628721D03*
X771787Y628721D03*
X797187Y628721D03*
X822587Y628721D03*
X822587Y781121D03*
X797187Y781121D03*
X771787Y781121D03*
X746387Y781121D03*
X720987Y781121D03*
X695587Y781121D03*
D11*
X430700Y468274D02*
X430700Y455066D01*
X456100Y455066D02*
X456100Y468274D01*
X481500Y468274D02*
X481500Y455066D01*
X506900Y455066D02*
X506900Y468274D01*
X532300Y468274D02*
X532300Y455066D01*
X557700Y455066D02*
X557700Y468274D01*
X583100Y468274D02*
X583100Y455066D01*
X608500Y455066D02*
X608500Y468274D01*
X633900Y468274D02*
X633900Y455066D01*
X659300Y455066D02*
X659300Y468274D01*
X684700Y468274D02*
X684700Y455066D01*
X710100Y455066D02*
X710100Y468274D01*
X735500Y468274D02*
X735500Y455066D01*
X760900Y455066D02*
X760900Y468274D01*
X760900Y531266D02*
X760900Y544474D01*
X735500Y544474D02*
X735500Y531266D01*
X710100Y531266D02*
X710100Y544474D01*
X684700Y544474D02*
X684700Y531266D01*
X659300Y531266D02*
X659300Y544474D01*
X633900Y544474D02*
X633900Y531266D01*
X608500Y531266D02*
X608500Y544474D01*
X583100Y544474D02*
X583100Y531266D01*
X557700Y531266D02*
X557700Y544474D01*
X532300Y544474D02*
X532300Y531266D01*
X506900Y531266D02*
X506900Y544474D01*
X481500Y544474D02*
X481500Y531266D01*
X456100Y531266D02*
X456100Y544474D01*
X430700Y544474D02*
X430700Y531266D01*
D12*
X795910Y594620D03*
X795910Y569220D03*
X795910Y543820D03*
D13*
X447750Y416070D03*
X520350Y415570D03*
X596510Y414530D03*
X669110Y414030D03*
X743770Y415880D03*
X816370Y415380D03*
D14*
X364730Y420690D03*
D15*
X364730Y520690D03*
D16*
X294640Y579120D03*
X269240Y579120D03*
X243840Y579120D03*
X218440Y579120D03*
X193040Y579120D03*
X167640Y579120D03*
D17*
X628650Y439420D03*
X654050Y439420D03*
D18*
X365949Y419371D02*
X364730Y420690D01*
X795528Y567690D02*
X795528Y569214D01*
X748030Y415880D02*
X743770Y415880D01*
X795528Y569214D02*
X795910Y569220D01*
X596646Y433488D02*
X596646Y414909D01*
X596510Y414530D01*
X596646Y433488D02*
X608500Y450010D01*
X608500Y461670D01*
D19*
X270510Y577850D02*
X269240Y579120D01*
X270510Y577850D02*
X270510Y556260D01*
X397510Y556260D02*
X406400Y565150D01*
X555820Y565150D01*
X397510Y556260D02*
X270510Y556260D01*
D20*
X553720Y594360D03*
X590550Y595630D03*
D19*
X589280Y594360D02*
X553720Y594360D01*
X589280Y594360D02*
X590550Y595630D01*
X555820Y572770D02*
X555820Y565150D01*
X555820Y572770D02*
X555820Y592260D01*
X553720Y594360D01*
X590550Y595630D02*
X596900Y595630D01*
X790448Y572770D02*
X795528Y567690D01*
X619760Y572770D02*
X596900Y595630D01*
X619760Y572770D02*
X790448Y572770D01*
X608500Y497670D02*
X608500Y461670D01*
X607060Y499110D02*
X583100Y523070D01*
X607060Y499110D02*
X608500Y497670D01*
X583100Y523070D02*
X583100Y537870D01*
X795910Y569220D02*
X826770Y538360D01*
X793750Y440690D02*
X769620Y440690D01*
X748030Y419100D01*
X748030Y415880D01*
X826770Y473710D02*
X826770Y538360D01*
X826770Y473710D02*
X793750Y440690D01*
D21*
X340360Y419100D03*
D18*
X340631Y419371D01*
D19*
X365949Y419371D01*
D21*
X260350Y452120D03*
D19*
X260350Y546100D02*
X270510Y556260D01*
X260350Y546100D02*
X260350Y452120D01*
D21*
X431800Y425450D03*
D19*
X438370Y425450D01*
X447750Y416070D01*
D21*
X715010Y436880D03*
D19*
X727120Y415880D02*
X743770Y415880D01*
X715010Y427990D02*
X715010Y436880D01*
X715010Y427990D02*
X727120Y415880D01*
D21*
X680720Y499110D03*
D19*
X607060Y499110D01*
X583100Y537870D02*
X582930Y538040D01*
X582930Y561340D01*
X571500Y572770D01*
X555820Y572770D01*
X414020Y579120D02*
X294640Y579120D01*
X414020Y579120D02*
X462280Y579120D01*
X464820Y581660D01*
D20*
X464820Y581660D03*
X414020Y579120D03*
D21*
X334010Y541020D03*
D19*
X580390Y464380D02*
X583100Y461670D01*
X580390Y464380D02*
X580390Y488950D01*
X574040Y495300D01*
X405130Y495300D02*
X384810Y474980D01*
X351790Y474980D01*
X334010Y492760D02*
X334010Y541020D01*
X405130Y495300D02*
X574040Y495300D01*
X351790Y474980D02*
X341630Y485140D01*
X334010Y492760D01*
D21*
X306070Y476250D03*
D19*
X314960Y485140D01*
X341630Y485140D01*
D18*
X481500Y461670D02*
X481500Y448480D01*
X473710Y440690D01*
X401320Y440690D01*
X391160Y450850D01*
X339090Y450850D01*
X322580Y434340D02*
X322580Y406400D01*
X320665Y404485D01*
X240030Y404485D01*
X218440Y426075D01*
X322580Y434340D02*
X339090Y450850D01*
X218440Y426075D02*
X218440Y579120D01*
X720987Y767088D02*
X720987Y781121D01*
X720987Y767088D02*
X718185Y764286D01*
D20*
X396367Y769366D03*
D18*
X400177Y764286D02*
X718185Y764286D01*
X400177Y764286D02*
X396367Y768096D01*
X396367Y769366D01*
X357251Y737235D02*
X356616Y737235D01*
X315468Y778383D01*
X312579Y781645D01*
X822587Y781121D02*
X822587Y767469D01*
X740918Y685800D01*
X407797Y685800D01*
X395351Y673354D01*
X385191Y673354D01*
D20*
X357251Y737235D03*
X385191Y673354D03*
D18*
X771787Y628721D02*
X771787Y625737D01*
X758190Y612140D01*
X660400Y612140D01*
X631317Y641223D01*
X266700Y641223D01*
X261779Y636302D01*
X261779Y629245D01*
X720987Y628721D02*
X720987Y633341D01*
X699389Y654939D01*
X608838Y654939D01*
X601980Y661797D01*
X233309Y661797D01*
X210979Y638474D01*
X210979Y629245D01*
X205740Y606552D02*
X185579Y626713D01*
X185579Y629245D01*
X602615Y606552D02*
X606425Y610362D01*
X602615Y606552D02*
X205740Y606552D01*
D20*
X606425Y610362D03*
D18*
X712978Y726948D02*
X294894Y726948D01*
X712978Y726948D02*
X734356Y748326D01*
X746387Y762686D02*
X746387Y781121D01*
X746387Y762686D02*
X734356Y748326D01*
X294894Y726948D02*
X284480Y737362D01*
X284480Y754380D01*
X270510Y768350D01*
X236220Y768350D01*
X236220Y781486D01*
X236379Y781645D01*
X287179Y622522D02*
X292481Y617220D01*
X287179Y622522D02*
X287179Y629245D01*
X292481Y617220D02*
X588137Y617220D01*
X595376Y624459D01*
X623824Y624459D01*
X649351Y598932D01*
X766953Y598932D01*
X795528Y627507D01*
X797187Y628721D01*
X239903Y693928D02*
X232537Y693928D01*
X239903Y693928D02*
X258318Y675513D01*
X368554Y675513D01*
X389128Y696087D01*
X435102Y696087D01*
X441960Y702945D01*
X441960Y709803D01*
X433832Y717931D01*
X412496Y717931D01*
D20*
X232537Y693928D03*
X412496Y717931D03*
D18*
X185166Y778383D02*
X185166Y656971D01*
X164719Y636524D01*
X493776Y593217D02*
X507492Y579501D01*
X185166Y778383D02*
X185579Y781645D01*
D20*
X507492Y579501D03*
D18*
X193040Y595630D02*
X164719Y623951D01*
X193040Y595630D02*
X491490Y595630D01*
X493776Y593344D01*
X493776Y593217D01*
X164719Y623951D02*
X164719Y636524D01*
X278765Y715391D02*
X242189Y751967D01*
X242189Y754507D01*
X278765Y715391D02*
X376174Y715391D01*
D20*
X242189Y754507D03*
X376174Y715391D03*
D18*
X380492Y737235D02*
X380492Y763905D01*
X363474Y780923D01*
X362204Y780923D01*
D20*
X362204Y780923D03*
X380492Y737235D03*
D18*
X726821Y699516D02*
X797187Y769882D01*
X726821Y699516D02*
X716661Y699516D01*
X797187Y769882D02*
X797187Y781121D01*
D20*
X716661Y699516D03*
D18*
X822587Y636770D02*
X822587Y628721D01*
X822587Y636770D02*
X785114Y674243D01*
X520065Y674243D02*
X518795Y672973D01*
X520065Y674243D02*
X785114Y674243D01*
D20*
X518795Y672973D03*
D18*
X695579Y435483D02*
X674126Y414030D01*
X669110Y414030D01*
D20*
X695579Y435483D03*
D18*
X564541Y415570D02*
X520350Y415570D01*
X564541Y415570D02*
X570484Y421513D01*
D20*
X570484Y421513D03*
X822198Y444373D03*
D18*
X816370Y437910D02*
X816370Y415380D01*
X822198Y443738D02*
X822198Y444373D01*
X822198Y443738D02*
X816370Y437910D01*
X746387Y628721D02*
X746387Y640072D01*
X721233Y665226D01*
X624967Y665226D01*
X587121Y651510D02*
X250825Y651510D01*
X237561Y638246D01*
X236379Y629245D01*
D20*
X624967Y665226D03*
X587121Y651510D03*
D18*
X364744Y687070D02*
X276987Y687070D01*
X364744Y687070D02*
X385318Y707644D01*
X424053Y707644D01*
D20*
X276987Y687070D03*
X424053Y707644D03*
D18*
X428625Y534924D02*
X380619Y534924D01*
X366903Y521208D01*
X428625Y534924D02*
X430700Y537870D01*
X366903Y521208D02*
X364730Y520690D01*
X633900Y461670D02*
X633900Y454830D01*
X628650Y449580D02*
X628650Y439420D01*
X628650Y449580D02*
X633900Y454830D01*
X659300Y454830D02*
X659300Y461670D01*
X659300Y454830D02*
X654050Y449580D01*
X654050Y439420D01*
M02*
