G04 EAGLE Gerber RS-274X export*
G75*
%MOMM*%
%FSLAX34Y34*%
%LPD*%
%INSilkscreen Top*%
%IPPOS*%
%AMOC8*
5,1,8,0,0,1.08239X$1,22.5*%
G01*
%ADD10C,0.127000*%
%ADD11C,0.101600*%
%ADD12C,0.152400*%
%ADD13C,0.177800*%


D10*
X-4921Y800695D02*
X503079Y800695D01*
X503079Y610195D01*
X-4921Y610195D01*
X-4921Y800695D01*
D11*
X84487Y793847D02*
X92283Y793847D01*
X92283Y791898D01*
X84487Y784102D01*
X84487Y782153D01*
X96181Y780204D02*
X103977Y780204D01*
X115671Y791898D02*
X113722Y793847D01*
X109824Y793847D01*
X107875Y791898D01*
X107875Y789949D01*
X109824Y788000D01*
X113722Y788000D01*
X115671Y786051D01*
X115671Y784102D01*
X113722Y782153D01*
X109824Y782153D01*
X107875Y784102D01*
X119569Y793847D02*
X127365Y793847D01*
X119569Y793847D02*
X119569Y782153D01*
X127365Y782153D01*
X123467Y788000D02*
X119569Y788000D01*
X137110Y793847D02*
X139059Y791898D01*
X137110Y793847D02*
X133212Y793847D01*
X131263Y791898D01*
X131263Y784102D01*
X133212Y782153D01*
X137110Y782153D01*
X139059Y784102D01*
X139059Y788000D01*
X135161Y788000D01*
X142957Y789949D02*
X146855Y793847D01*
X146855Y782153D01*
X142957Y782153D02*
X150753Y782153D01*
X344334Y641447D02*
X344334Y629753D01*
X338487Y635600D02*
X344334Y641447D01*
X346283Y635600D02*
X338487Y635600D01*
X350181Y627804D02*
X357977Y627804D01*
X361875Y629753D02*
X361875Y641447D01*
X361875Y629753D02*
X367722Y629753D01*
X369671Y631702D01*
X369671Y639498D01*
X367722Y641447D01*
X361875Y641447D01*
X373569Y629753D02*
X377467Y629753D01*
X375518Y629753D02*
X375518Y641447D01*
X373569Y641447D02*
X377467Y641447D01*
X387212Y641447D02*
X389161Y639498D01*
X387212Y641447D02*
X383314Y641447D01*
X381365Y639498D01*
X381365Y631702D01*
X383314Y629753D01*
X387212Y629753D01*
X389161Y631702D01*
X389161Y635600D01*
X385263Y635600D01*
X393059Y629753D02*
X396957Y629753D01*
X395008Y629753D02*
X395008Y641447D01*
X393059Y641447D02*
X396957Y641447D01*
X404753Y641447D02*
X404753Y629753D01*
X400855Y641447D02*
X408651Y641447D01*
X412549Y627804D02*
X420345Y627804D01*
X424243Y641447D02*
X432039Y641447D01*
X432039Y639498D01*
X424243Y631702D01*
X424243Y629753D01*
X441784Y641447D02*
X443733Y639498D01*
X441784Y641447D02*
X437886Y641447D01*
X435937Y639498D01*
X435937Y637549D01*
X437886Y635600D01*
X441784Y635600D01*
X443733Y633651D01*
X443733Y631702D01*
X441784Y629753D01*
X437886Y629753D01*
X435937Y631702D01*
X447631Y641447D02*
X455427Y641447D01*
X447631Y641447D02*
X447631Y629753D01*
X455427Y629753D01*
X451529Y635600D02*
X447631Y635600D01*
X465172Y641447D02*
X467121Y639498D01*
X465172Y641447D02*
X461274Y641447D01*
X459325Y639498D01*
X459325Y631702D01*
X461274Y629753D01*
X465172Y629753D01*
X467121Y631702D01*
X467121Y635600D01*
X463223Y635600D01*
X471019Y629753D02*
X471019Y641447D01*
X474917Y637549D01*
X478815Y641447D01*
X478815Y629753D01*
X482713Y641447D02*
X490509Y641447D01*
X482713Y641447D02*
X482713Y629753D01*
X490509Y629753D01*
X486611Y635600D02*
X482713Y635600D01*
X494407Y629753D02*
X494407Y641447D01*
X502203Y629753D01*
X502203Y641447D01*
X509999Y641447D02*
X509999Y629753D01*
X506101Y641447D02*
X513897Y641447D01*
X517795Y627804D02*
X525590Y627804D01*
X529488Y629753D02*
X529488Y641447D01*
X529488Y629753D02*
X535335Y629753D01*
X537284Y631702D01*
X537284Y639498D01*
X535335Y641447D01*
X529488Y641447D01*
X541182Y629753D02*
X545080Y629753D01*
X543131Y629753D02*
X543131Y641447D01*
X541182Y641447D02*
X545080Y641447D01*
X554825Y641447D02*
X556774Y639498D01*
X554825Y641447D02*
X550927Y641447D01*
X548978Y639498D01*
X548978Y637549D01*
X550927Y635600D01*
X554825Y635600D01*
X556774Y633651D01*
X556774Y631702D01*
X554825Y629753D01*
X550927Y629753D01*
X548978Y631702D01*
X560672Y629753D02*
X560672Y641447D01*
X566519Y641447D01*
X568468Y639498D01*
X568468Y635600D01*
X566519Y633651D01*
X560672Y633651D01*
X572366Y629753D02*
X572366Y641447D01*
X572366Y629753D02*
X580162Y629753D01*
X584060Y629753D02*
X584060Y637549D01*
X587958Y641447D01*
X591856Y637549D01*
X591856Y629753D01*
X591856Y635600D02*
X584060Y635600D01*
X595754Y639498D02*
X595754Y641447D01*
X595754Y639498D02*
X599652Y635600D01*
X603550Y639498D01*
X603550Y641447D01*
X599652Y635600D02*
X599652Y629753D01*
D10*
X505087Y800171D02*
X1013087Y800171D01*
X1013087Y609671D01*
X505087Y609671D01*
X505087Y800171D01*
D11*
X594495Y793323D02*
X602291Y793323D01*
X602291Y791374D01*
X594495Y783578D01*
X594495Y781629D01*
X606189Y779680D02*
X613985Y779680D01*
X625679Y791374D02*
X623730Y793323D01*
X619832Y793323D01*
X617883Y791374D01*
X617883Y789425D01*
X619832Y787476D01*
X623730Y787476D01*
X625679Y785527D01*
X625679Y783578D01*
X623730Y781629D01*
X619832Y781629D01*
X617883Y783578D01*
X629577Y793323D02*
X637373Y793323D01*
X629577Y793323D02*
X629577Y781629D01*
X637373Y781629D01*
X633475Y787476D02*
X629577Y787476D01*
X647118Y793323D02*
X649067Y791374D01*
X647118Y793323D02*
X643220Y793323D01*
X641271Y791374D01*
X641271Y783578D01*
X643220Y781629D01*
X647118Y781629D01*
X649067Y783578D01*
X649067Y787476D01*
X645169Y787476D01*
X652965Y781629D02*
X660761Y781629D01*
X652965Y781629D02*
X660761Y789425D01*
X660761Y791374D01*
X658812Y793323D01*
X654914Y793323D01*
X652965Y791374D01*
X854342Y640923D02*
X854342Y629229D01*
X848495Y635076D02*
X854342Y640923D01*
X856291Y635076D02*
X848495Y635076D01*
X860189Y627280D02*
X867985Y627280D01*
X871883Y629229D02*
X871883Y640923D01*
X871883Y629229D02*
X877730Y629229D01*
X879679Y631178D01*
X879679Y638974D01*
X877730Y640923D01*
X871883Y640923D01*
X883577Y629229D02*
X887475Y629229D01*
X885526Y629229D02*
X885526Y640923D01*
X883577Y640923D02*
X887475Y640923D01*
X897220Y640923D02*
X899169Y638974D01*
X897220Y640923D02*
X893322Y640923D01*
X891373Y638974D01*
X891373Y631178D01*
X893322Y629229D01*
X897220Y629229D01*
X899169Y631178D01*
X899169Y635076D01*
X895271Y635076D01*
X903067Y629229D02*
X906965Y629229D01*
X905016Y629229D02*
X905016Y640923D01*
X903067Y640923D02*
X906965Y640923D01*
X914761Y640923D02*
X914761Y629229D01*
X910863Y640923D02*
X918659Y640923D01*
X922557Y627280D02*
X930353Y627280D01*
X934251Y640923D02*
X942047Y640923D01*
X942047Y638974D01*
X934251Y631178D01*
X934251Y629229D01*
X951792Y640923D02*
X953741Y638974D01*
X951792Y640923D02*
X947894Y640923D01*
X945945Y638974D01*
X945945Y637025D01*
X947894Y635076D01*
X951792Y635076D01*
X953741Y633127D01*
X953741Y631178D01*
X951792Y629229D01*
X947894Y629229D01*
X945945Y631178D01*
X957639Y640923D02*
X965435Y640923D01*
X957639Y640923D02*
X957639Y629229D01*
X965435Y629229D01*
X961537Y635076D02*
X957639Y635076D01*
X975180Y640923D02*
X977129Y638974D01*
X975180Y640923D02*
X971282Y640923D01*
X969333Y638974D01*
X969333Y631178D01*
X971282Y629229D01*
X975180Y629229D01*
X977129Y631178D01*
X977129Y635076D01*
X973231Y635076D01*
X981027Y629229D02*
X981027Y640923D01*
X984925Y637025D01*
X988823Y640923D01*
X988823Y629229D01*
X992721Y640923D02*
X1000517Y640923D01*
X992721Y640923D02*
X992721Y629229D01*
X1000517Y629229D01*
X996619Y635076D02*
X992721Y635076D01*
X1004415Y629229D02*
X1004415Y640923D01*
X1012211Y629229D01*
X1012211Y640923D01*
X1020007Y640923D02*
X1020007Y629229D01*
X1016109Y640923D02*
X1023905Y640923D01*
X1027803Y627280D02*
X1035598Y627280D01*
X1039496Y629229D02*
X1039496Y640923D01*
X1039496Y629229D02*
X1045343Y629229D01*
X1047292Y631178D01*
X1047292Y638974D01*
X1045343Y640923D01*
X1039496Y640923D01*
X1051190Y629229D02*
X1055088Y629229D01*
X1053139Y629229D02*
X1053139Y640923D01*
X1051190Y640923D02*
X1055088Y640923D01*
X1064833Y640923D02*
X1066782Y638974D01*
X1064833Y640923D02*
X1060935Y640923D01*
X1058986Y638974D01*
X1058986Y637025D01*
X1060935Y635076D01*
X1064833Y635076D01*
X1066782Y633127D01*
X1066782Y631178D01*
X1064833Y629229D01*
X1060935Y629229D01*
X1058986Y631178D01*
X1070680Y629229D02*
X1070680Y640923D01*
X1076527Y640923D01*
X1078476Y638974D01*
X1078476Y635076D01*
X1076527Y633127D01*
X1070680Y633127D01*
X1082374Y629229D02*
X1082374Y640923D01*
X1082374Y629229D02*
X1090170Y629229D01*
X1094068Y629229D02*
X1094068Y637025D01*
X1097966Y640923D01*
X1101864Y637025D01*
X1101864Y629229D01*
X1101864Y635076D02*
X1094068Y635076D01*
X1105762Y638974D02*
X1105762Y640923D01*
X1105762Y638974D02*
X1109660Y635076D01*
X1113558Y638974D01*
X1113558Y640923D01*
X1109660Y635076D02*
X1109660Y629229D01*
D12*
X410380Y493420D02*
X410380Y471830D01*
X410380Y493420D02*
X410538Y493422D01*
X410697Y493428D01*
X410855Y493438D01*
X411012Y493452D01*
X411170Y493469D01*
X411326Y493491D01*
X411483Y493516D01*
X411638Y493546D01*
X411793Y493579D01*
X411947Y493616D01*
X412100Y493657D01*
X412252Y493702D01*
X412402Y493751D01*
X412552Y493803D01*
X412700Y493859D01*
X412847Y493919D01*
X412992Y493982D01*
X413135Y494049D01*
X413277Y494119D01*
X413417Y494193D01*
X413555Y494271D01*
X413691Y494352D01*
X413825Y494436D01*
X413957Y494523D01*
X414087Y494614D01*
X414214Y494708D01*
X414339Y494805D01*
X414462Y494906D01*
X414582Y495009D01*
X414699Y495115D01*
X414814Y495224D01*
X414926Y495336D01*
X415035Y495451D01*
X415141Y495568D01*
X415244Y495688D01*
X415345Y495811D01*
X415442Y495936D01*
X415536Y496063D01*
X415627Y496193D01*
X415714Y496325D01*
X415798Y496459D01*
X415879Y496595D01*
X415957Y496733D01*
X416031Y496873D01*
X416101Y497015D01*
X416168Y497158D01*
X416231Y497303D01*
X416291Y497450D01*
X416347Y497598D01*
X416399Y497748D01*
X416448Y497898D01*
X416493Y498050D01*
X416534Y498203D01*
X416571Y498357D01*
X416604Y498512D01*
X416634Y498667D01*
X416659Y498824D01*
X416681Y498980D01*
X416698Y499138D01*
X416712Y499295D01*
X416722Y499453D01*
X416728Y499612D01*
X416730Y499770D01*
X416728Y499928D01*
X416722Y500087D01*
X416712Y500245D01*
X416698Y500402D01*
X416681Y500560D01*
X416659Y500716D01*
X416634Y500873D01*
X416604Y501028D01*
X416571Y501183D01*
X416534Y501337D01*
X416493Y501490D01*
X416448Y501642D01*
X416399Y501792D01*
X416347Y501942D01*
X416291Y502090D01*
X416231Y502237D01*
X416168Y502382D01*
X416101Y502525D01*
X416031Y502667D01*
X415957Y502807D01*
X415879Y502945D01*
X415798Y503081D01*
X415714Y503215D01*
X415627Y503347D01*
X415536Y503477D01*
X415442Y503604D01*
X415345Y503729D01*
X415244Y503852D01*
X415141Y503972D01*
X415035Y504089D01*
X414926Y504204D01*
X414814Y504316D01*
X414699Y504425D01*
X414582Y504531D01*
X414462Y504634D01*
X414339Y504735D01*
X414214Y504832D01*
X414087Y504926D01*
X413957Y505017D01*
X413825Y505104D01*
X413691Y505188D01*
X413555Y505269D01*
X413417Y505347D01*
X413277Y505421D01*
X413135Y505491D01*
X412992Y505558D01*
X412847Y505621D01*
X412700Y505681D01*
X412552Y505737D01*
X412402Y505789D01*
X412252Y505838D01*
X412100Y505883D01*
X411947Y505924D01*
X411793Y505961D01*
X411638Y505994D01*
X411483Y506024D01*
X411326Y506049D01*
X411170Y506071D01*
X411012Y506088D01*
X410855Y506102D01*
X410697Y506112D01*
X410538Y506118D01*
X410380Y506120D01*
X410380Y471830D02*
X781220Y471830D01*
X410380Y506120D02*
X410380Y527710D01*
X781220Y527710D01*
X781220Y471830D01*
D13*
X402887Y475259D02*
X402887Y480598D01*
X402887Y477928D02*
X386871Y477928D01*
X386871Y475259D02*
X386871Y480598D01*
X386871Y494181D02*
X389541Y496851D01*
X386871Y494181D02*
X386871Y488843D01*
X389541Y486173D01*
X400218Y486173D01*
X402887Y488843D01*
X402887Y494181D01*
X400218Y496851D01*
X402887Y502545D02*
X402887Y513222D01*
X402887Y502545D02*
X392210Y513222D01*
X389541Y513222D01*
X386871Y510553D01*
X386871Y505214D01*
X389541Y502545D01*
D10*
X764160Y569220D02*
X764170Y569999D01*
X764198Y570778D01*
X764246Y571556D01*
X764313Y572332D01*
X764399Y573107D01*
X764504Y573879D01*
X764627Y574648D01*
X764770Y575414D01*
X764931Y576176D01*
X765112Y576935D01*
X765310Y577688D01*
X765527Y578437D01*
X765762Y579179D01*
X766016Y579916D01*
X766287Y580647D01*
X766577Y581370D01*
X766884Y582086D01*
X767208Y582795D01*
X767550Y583495D01*
X767909Y584187D01*
X768285Y584870D01*
X768677Y585543D01*
X769086Y586206D01*
X769511Y586859D01*
X769952Y587502D01*
X770408Y588133D01*
X770880Y588754D01*
X771367Y589362D01*
X771869Y589958D01*
X772385Y590542D01*
X772915Y591113D01*
X773459Y591671D01*
X774017Y592215D01*
X774588Y592745D01*
X775172Y593261D01*
X775768Y593763D01*
X776376Y594250D01*
X776997Y594722D01*
X777628Y595178D01*
X778271Y595619D01*
X778924Y596044D01*
X779587Y596453D01*
X780260Y596845D01*
X780943Y597221D01*
X781635Y597580D01*
X782335Y597922D01*
X783044Y598246D01*
X783760Y598553D01*
X784483Y598843D01*
X785214Y599114D01*
X785951Y599368D01*
X786693Y599603D01*
X787442Y599820D01*
X788195Y600018D01*
X788954Y600199D01*
X789716Y600360D01*
X790482Y600503D01*
X791251Y600626D01*
X792023Y600731D01*
X792798Y600817D01*
X793574Y600884D01*
X794352Y600932D01*
X795131Y600960D01*
X795910Y600970D01*
X796689Y600960D01*
X797468Y600932D01*
X798246Y600884D01*
X799022Y600817D01*
X799797Y600731D01*
X800569Y600626D01*
X801338Y600503D01*
X802104Y600360D01*
X802866Y600199D01*
X803625Y600018D01*
X804378Y599820D01*
X805127Y599603D01*
X805869Y599368D01*
X806606Y599114D01*
X807337Y598843D01*
X808060Y598553D01*
X808776Y598246D01*
X809485Y597922D01*
X810185Y597580D01*
X810877Y597221D01*
X811560Y596845D01*
X812233Y596453D01*
X812896Y596044D01*
X813549Y595619D01*
X814192Y595178D01*
X814823Y594722D01*
X815444Y594250D01*
X816052Y593763D01*
X816648Y593261D01*
X817232Y592745D01*
X817803Y592215D01*
X818361Y591671D01*
X818905Y591113D01*
X819435Y590542D01*
X819951Y589958D01*
X820453Y589362D01*
X820940Y588754D01*
X821412Y588133D01*
X821868Y587502D01*
X822309Y586859D01*
X822734Y586206D01*
X823143Y585543D01*
X823535Y584870D01*
X823911Y584187D01*
X824270Y583495D01*
X824612Y582795D01*
X824936Y582086D01*
X825243Y581370D01*
X825533Y580647D01*
X825804Y579916D01*
X826058Y579179D01*
X826293Y578437D01*
X826510Y577688D01*
X826708Y576935D01*
X826889Y576176D01*
X827050Y575414D01*
X827193Y574648D01*
X827316Y573879D01*
X827421Y573107D01*
X827507Y572332D01*
X827574Y571556D01*
X827622Y570778D01*
X827650Y569999D01*
X827660Y569220D01*
X827650Y568441D01*
X827622Y567662D01*
X827574Y566884D01*
X827507Y566108D01*
X827421Y565333D01*
X827316Y564561D01*
X827193Y563792D01*
X827050Y563026D01*
X826889Y562264D01*
X826708Y561505D01*
X826510Y560752D01*
X826293Y560003D01*
X826058Y559261D01*
X825804Y558524D01*
X825533Y557793D01*
X825243Y557070D01*
X824936Y556354D01*
X824612Y555645D01*
X824270Y554945D01*
X823911Y554253D01*
X823535Y553570D01*
X823143Y552897D01*
X822734Y552234D01*
X822309Y551581D01*
X821868Y550938D01*
X821412Y550307D01*
X820940Y549686D01*
X820453Y549078D01*
X819951Y548482D01*
X819435Y547898D01*
X818905Y547327D01*
X818361Y546769D01*
X817803Y546225D01*
X817232Y545695D01*
X816648Y545179D01*
X816052Y544677D01*
X815444Y544190D01*
X814823Y543718D01*
X814192Y543262D01*
X813549Y542821D01*
X812896Y542396D01*
X812233Y541987D01*
X811560Y541595D01*
X810877Y541219D01*
X810185Y540860D01*
X809485Y540518D01*
X808776Y540194D01*
X808060Y539887D01*
X807337Y539597D01*
X806606Y539326D01*
X805869Y539072D01*
X805127Y538837D01*
X804378Y538620D01*
X803625Y538422D01*
X802866Y538241D01*
X802104Y538080D01*
X801338Y537937D01*
X800569Y537814D01*
X799797Y537709D01*
X799022Y537623D01*
X798246Y537556D01*
X797468Y537508D01*
X796689Y537480D01*
X795910Y537470D01*
X795131Y537480D01*
X794352Y537508D01*
X793574Y537556D01*
X792798Y537623D01*
X792023Y537709D01*
X791251Y537814D01*
X790482Y537937D01*
X789716Y538080D01*
X788954Y538241D01*
X788195Y538422D01*
X787442Y538620D01*
X786693Y538837D01*
X785951Y539072D01*
X785214Y539326D01*
X784483Y539597D01*
X783760Y539887D01*
X783044Y540194D01*
X782335Y540518D01*
X781635Y540860D01*
X780943Y541219D01*
X780260Y541595D01*
X779587Y541987D01*
X778924Y542396D01*
X778271Y542821D01*
X777628Y543262D01*
X776997Y543718D01*
X776376Y544190D01*
X775768Y544677D01*
X775172Y545179D01*
X774588Y545695D01*
X774017Y546225D01*
X773459Y546769D01*
X772915Y547327D01*
X772385Y547898D01*
X771869Y548482D01*
X771367Y549078D01*
X770880Y549686D01*
X770408Y550307D01*
X769952Y550938D01*
X769511Y551581D01*
X769086Y552234D01*
X768677Y552897D01*
X768285Y553570D01*
X767909Y554253D01*
X767550Y554945D01*
X767208Y555645D01*
X766884Y556354D01*
X766577Y557070D01*
X766287Y557793D01*
X766016Y558524D01*
X765762Y559261D01*
X765527Y560003D01*
X765310Y560752D01*
X765112Y561505D01*
X764931Y562264D01*
X764770Y563026D01*
X764627Y563792D01*
X764504Y564561D01*
X764399Y565333D01*
X764313Y566108D01*
X764246Y566884D01*
X764198Y567662D01*
X764170Y568441D01*
X764160Y569220D01*
D11*
X809118Y601478D02*
X809118Y613172D01*
X809118Y601478D02*
X816914Y601478D01*
X820812Y613172D02*
X828608Y613172D01*
X820812Y613172D02*
X820812Y601478D01*
X828608Y601478D01*
X824710Y607325D02*
X820812Y607325D01*
X832506Y613172D02*
X832506Y601478D01*
X838353Y601478D01*
X840302Y603427D01*
X840302Y611223D01*
X838353Y613172D01*
X832506Y613172D01*
X844200Y609274D02*
X848098Y613172D01*
X848098Y601478D01*
X844200Y601478D02*
X851996Y601478D01*
D10*
X379730Y440690D02*
X349730Y440690D01*
X349730Y500690D01*
X379730Y500690D01*
X379730Y440690D01*
D11*
X334477Y448994D02*
X332528Y447045D01*
X332528Y443147D01*
X334477Y441198D01*
X336426Y441198D01*
X338375Y443147D01*
X338375Y447045D01*
X340324Y448994D01*
X342273Y448994D01*
X344222Y447045D01*
X344222Y443147D01*
X342273Y441198D01*
X344222Y452892D02*
X332528Y452892D01*
X340324Y456790D02*
X344222Y452892D01*
X340324Y456790D02*
X344222Y460688D01*
X332528Y460688D01*
X336426Y464586D02*
X332528Y468484D01*
X344222Y468484D01*
X344222Y464586D02*
X344222Y472382D01*
D10*
X307340Y363220D02*
X154940Y363220D01*
X154940Y591820D01*
X307340Y591820D01*
X307340Y363220D01*
D11*
X179832Y376428D02*
X168138Y376428D01*
X172036Y380326D01*
X168138Y384224D01*
X179832Y384224D01*
X168138Y390071D02*
X168138Y393969D01*
X168138Y390071D02*
X170087Y388122D01*
X177883Y388122D01*
X179832Y390071D01*
X179832Y393969D01*
X177883Y395918D01*
X170087Y395918D01*
X168138Y393969D01*
X168138Y399816D02*
X179832Y399816D01*
X179832Y405663D01*
X177883Y407612D01*
X170087Y407612D01*
X168138Y405663D01*
X168138Y399816D01*
X172036Y411510D02*
X168138Y415408D01*
X179832Y415408D01*
X179832Y411510D02*
X179832Y419306D01*
X282438Y394975D02*
X284387Y396924D01*
X282438Y394975D02*
X282438Y391077D01*
X284387Y389128D01*
X292183Y389128D01*
X294132Y391077D01*
X294132Y394975D01*
X292183Y396924D01*
X294132Y400822D02*
X282438Y400822D01*
X282438Y406669D01*
X284387Y408618D01*
X288285Y408618D01*
X290234Y406669D01*
X290234Y400822D01*
X294132Y412516D02*
X294132Y420312D01*
X294132Y412516D02*
X286336Y420312D01*
X284387Y420312D01*
X282438Y418363D01*
X282438Y414465D01*
X284387Y412516D01*
X286336Y424210D02*
X282438Y428108D01*
X294132Y428108D01*
X294132Y424210D02*
X294132Y432006D01*
X292183Y435904D02*
X284387Y435904D01*
X282438Y437853D01*
X282438Y441751D01*
X284387Y443700D01*
X292183Y443700D01*
X294132Y441751D01*
X294132Y437853D01*
X292183Y435904D01*
X284387Y443700D01*
X294132Y447598D02*
X294132Y455394D01*
X294132Y447598D02*
X286336Y455394D01*
X284387Y455394D01*
X282438Y453445D01*
X282438Y449547D01*
X284387Y447598D01*
X473514Y598678D02*
X477412Y598678D01*
X475463Y598678D02*
X475463Y610372D01*
X473514Y610372D02*
X477412Y610372D01*
X487157Y610372D02*
X489106Y608423D01*
X487157Y610372D02*
X483259Y610372D01*
X481310Y608423D01*
X481310Y600627D01*
X483259Y598678D01*
X487157Y598678D01*
X489106Y600627D01*
X493004Y606474D02*
X496902Y610372D01*
X496902Y598678D01*
X493004Y598678D02*
X500800Y598678D01*
X460248Y748538D02*
X460248Y756334D01*
X464146Y760232D01*
X468044Y756334D01*
X468044Y748538D01*
X468044Y754385D02*
X460248Y754385D01*
X475840Y748538D02*
X475840Y760232D01*
X471942Y760232D02*
X479738Y760232D01*
X487534Y760232D02*
X487534Y748538D01*
X483636Y760232D02*
X491432Y760232D01*
X495330Y748538D02*
X499228Y748538D01*
X497279Y748538D02*
X497279Y760232D01*
X495330Y760232D02*
X499228Y760232D01*
X503126Y760232D02*
X503126Y748538D01*
X510922Y748538D02*
X503126Y760232D01*
X510922Y760232D02*
X510922Y748538D01*
X514820Y758283D02*
X514820Y760232D01*
X514820Y758283D02*
X518718Y754385D01*
X522616Y758283D01*
X522616Y760232D01*
X518718Y754385D02*
X518718Y748538D01*
X526514Y756334D02*
X530412Y760232D01*
X530412Y748538D01*
X526514Y748538D02*
X534310Y748538D01*
X542106Y758283D02*
X546004Y760232D01*
X542106Y758283D02*
X538208Y754385D01*
X538208Y750487D01*
X540157Y748538D01*
X544055Y748538D01*
X546004Y750487D01*
X546004Y752436D01*
X544055Y754385D01*
X538208Y754385D01*
X549902Y750487D02*
X549902Y758283D01*
X551851Y760232D01*
X555749Y760232D01*
X557698Y758283D01*
X557698Y750487D01*
X555749Y748538D01*
X551851Y748538D01*
X549902Y750487D01*
X557698Y758283D01*
X565494Y758283D02*
X569392Y760232D01*
X565494Y758283D02*
X561596Y754385D01*
X561596Y750487D01*
X563545Y748538D01*
X567443Y748538D01*
X569392Y750487D01*
X569392Y752436D01*
X567443Y754385D01*
X561596Y754385D01*
M02*
