G04 EAGLE Gerber RS-274X export*
G75*
%MOMM*%
%FSLAX34Y34*%
%LPD*%
%INSolderpaste Bottom*%
%IPPOS*%
%AMOC8*
5,1,8,0,0,1.08239X$1,22.5*%
G01*
%ADD10R,2.200000X2.000000*%
%ADD11R,2.000000X2.200000*%
%ADD12R,1.000000X2.000000*%
%ADD13R,3.000000X0.600000*%


D10*
X455720Y420270D03*
X490220Y420270D03*
X595820Y418770D03*
X630320Y418770D03*
X724830Y418660D03*
X759330Y418660D03*
X765880Y498870D03*
X731380Y498870D03*
D11*
X807730Y477760D03*
X807730Y512260D03*
D10*
X516790Y419770D03*
X551290Y419770D03*
D11*
X175930Y505670D03*
X175930Y540170D03*
X354690Y697160D03*
X354690Y662660D03*
D10*
X712270Y667910D03*
X677770Y667910D03*
D11*
X786130Y745040D03*
X786130Y710540D03*
X822970Y667680D03*
X822970Y702180D03*
X164770Y751050D03*
X164770Y716550D03*
X308680Y668520D03*
X308680Y703020D03*
X201270Y658380D03*
X201270Y692880D03*
D10*
X657080Y418270D03*
X691580Y418270D03*
X787480Y419430D03*
X821980Y419430D03*
D11*
X267040Y508930D03*
X267040Y543430D03*
X307510Y507320D03*
X307510Y541820D03*
X259240Y665800D03*
X259240Y700300D03*
D12*
X222250Y511010D03*
X231750Y538010D03*
X212750Y538010D03*
D13*
X458470Y621030D03*
X458470Y633730D03*
X458470Y646430D03*
X458470Y659130D03*
X458470Y671830D03*
X458470Y684530D03*
X458470Y697230D03*
X458470Y709930D03*
X458470Y722630D03*
X458470Y735330D03*
X556872Y734264D03*
X556872Y721564D03*
X556872Y708864D03*
X556872Y696164D03*
X556872Y683464D03*
X556872Y670764D03*
X556872Y658064D03*
X556872Y645364D03*
X556872Y632664D03*
X556872Y619964D03*
D10*
X587730Y497840D03*
X553230Y497840D03*
X625120Y499110D03*
X659620Y499110D03*
X526770Y595630D03*
X492270Y595630D03*
D11*
X283210Y433350D03*
X283210Y467850D03*
X238760Y435890D03*
X238760Y470390D03*
X193040Y433350D03*
X193040Y467850D03*
M02*
