G04 EAGLE Gerber RS-274X export*
G75*
%MOMM*%
%FSLAX34Y34*%
%LPD*%
%INSoldermask Top*%
%IPPOS*%
%AMOC8*
5,1,8,0,0,1.08239X$1,22.5*%
G01*
%ADD10R,1.511200X1.511200*%
%ADD11C,1.524000*%
%ADD12C,1.611200*%
%ADD13R,1.703200X3.203200*%
%ADD14R,2.203200X3.503200*%
%ADD15R,2.203200X3.703200*%
%ADD16R,1.711200X1.711200*%
%ADD17R,1.311200X1.311200*%
%ADD18C,1.219200*%
%ADD19C,1.168400*%


D10*
X185579Y629245D03*
X210979Y629245D03*
X236379Y629245D03*
X261779Y629245D03*
X287179Y629245D03*
X312579Y629245D03*
X312579Y781645D03*
X287179Y781645D03*
X261779Y781645D03*
X236379Y781645D03*
X210979Y781645D03*
X185579Y781645D03*
X695587Y628721D03*
X720987Y628721D03*
X746387Y628721D03*
X771787Y628721D03*
X797187Y628721D03*
X822587Y628721D03*
X822587Y781121D03*
X797187Y781121D03*
X771787Y781121D03*
X746387Y781121D03*
X720987Y781121D03*
X695587Y781121D03*
D11*
X430700Y468274D02*
X430700Y455066D01*
X456100Y455066D02*
X456100Y468274D01*
X481500Y468274D02*
X481500Y455066D01*
X506900Y455066D02*
X506900Y468274D01*
X532300Y468274D02*
X532300Y455066D01*
X557700Y455066D02*
X557700Y468274D01*
X583100Y468274D02*
X583100Y455066D01*
X608500Y455066D02*
X608500Y468274D01*
X633900Y468274D02*
X633900Y455066D01*
X659300Y455066D02*
X659300Y468274D01*
X684700Y468274D02*
X684700Y455066D01*
X710100Y455066D02*
X710100Y468274D01*
X735500Y468274D02*
X735500Y455066D01*
X760900Y455066D02*
X760900Y468274D01*
X760900Y531266D02*
X760900Y544474D01*
X735500Y544474D02*
X735500Y531266D01*
X710100Y531266D02*
X710100Y544474D01*
X684700Y544474D02*
X684700Y531266D01*
X659300Y531266D02*
X659300Y544474D01*
X633900Y544474D02*
X633900Y531266D01*
X608500Y531266D02*
X608500Y544474D01*
X583100Y544474D02*
X583100Y531266D01*
X557700Y531266D02*
X557700Y544474D01*
X532300Y544474D02*
X532300Y531266D01*
X506900Y531266D02*
X506900Y544474D01*
X481500Y544474D02*
X481500Y531266D01*
X456100Y531266D02*
X456100Y544474D01*
X430700Y544474D02*
X430700Y531266D01*
D12*
X795910Y594620D03*
X795910Y569220D03*
X795910Y543820D03*
D13*
X447750Y416070D03*
X520350Y415570D03*
X596510Y414530D03*
X669110Y414030D03*
X743770Y415880D03*
X816370Y415380D03*
D14*
X364730Y420690D03*
D15*
X364730Y520690D03*
D16*
X294640Y579120D03*
X269240Y579120D03*
X243840Y579120D03*
X218440Y579120D03*
X193040Y579120D03*
X167640Y579120D03*
D17*
X628650Y439420D03*
X654050Y439420D03*
D18*
X553720Y594360D03*
X590550Y595630D03*
D19*
X340360Y419100D03*
X260350Y452120D03*
X431800Y425450D03*
X715010Y436880D03*
X680720Y499110D03*
D18*
X464820Y581660D03*
X414020Y579120D03*
D19*
X334010Y541020D03*
X306070Y476250D03*
D18*
X396367Y769366D03*
X357251Y737235D03*
X385191Y673354D03*
X606425Y610362D03*
X232537Y693928D03*
X412496Y717931D03*
X507492Y579501D03*
X242189Y754507D03*
X376174Y715391D03*
X362204Y780923D03*
X380492Y737235D03*
X716661Y699516D03*
X518795Y672973D03*
X695579Y435483D03*
X570484Y421513D03*
X822198Y444373D03*
X624967Y665226D03*
X587121Y651510D03*
X276987Y687070D03*
X424053Y707644D03*
M02*
